<svg width="20" height="20" viewBox="0 0 20 20" fill="none" xmlns="http://www.w3.org/2000/svg">
<path d="M17.85 9.10131C17.9992 9.0355 18.1258 8.92737 18.2141 8.79032C18.3025 8.65326 18.3486 8.49331 18.347 8.33026C18.3453 8.16722 18.2958 8.00825 18.2046 7.87305C18.1135 7.73785 17.9847 7.63236 17.8342 7.56965L10.6917 4.31631C10.4745 4.21727 10.2387 4.16602 10 4.16602C9.76136 4.16602 9.52548 4.21727 9.30835 4.31631L2.16668 7.56631C2.01832 7.63129 1.89211 7.73809 1.80349 7.87366C1.71486 8.00923 1.66766 8.16768 1.66766 8.32965C1.66766 8.49161 1.71486 8.65007 1.80349 8.78563C1.89211 8.9212 2.01832 9.028 2.16668 9.09298L9.30835 12.3496C9.52548 12.4487 9.76136 12.4999 10 12.4999C10.2387 12.4999 10.4745 12.4487 10.6917 12.3496L17.85 9.10131Z" stroke="#212121" stroke-width="1.25" stroke-linecap="round" stroke-linejoin="round"/>
<path d="M18.3333 8.33301V13.333" stroke="#212121" stroke-width="1.25" stroke-linecap="round" stroke-linejoin="round"/>
<path d="M5 10.417V13.3337C5 13.9967 5.52678 14.6326 6.46447 15.1014C7.40215 15.5703 8.67392 15.8337 10 15.8337C11.3261 15.8337 12.5979 15.5703 13.5355 15.1014C14.4732 14.6326 15 13.9967 15 13.3337V10.417" stroke="#212121" stroke-width="1.25" stroke-linecap="round" stroke-linejoin="round"/>
</svg>
