<svg width="20" height="20" viewBox="0 0 20 20" fill="none" xmlns="http://www.w3.org/2000/svg">
<path d="M12.5 1.66699H7.50002C7.03978 1.66699 6.66669 2.04009 6.66669 2.50033V4.16699C6.66669 4.62723 7.03978 5.00033 7.50002 5.00033H12.5C12.9603 5.00033 13.3334 4.62723 13.3334 4.16699V2.50033C13.3334 2.04009 12.9603 1.66699 12.5 1.66699Z" stroke="#212121" stroke-width="1.25" stroke-linecap="round" stroke-linejoin="round"/>
<path d="M13.3333 3.33301H15C15.442 3.33301 15.8659 3.5086 16.1785 3.82116C16.4911 4.13372 16.6666 4.55765 16.6666 4.99967V16.6663C16.6666 17.1084 16.4911 17.5323 16.1785 17.8449C15.8659 18.1574 15.442 18.333 15 18.333H4.99998C4.55795 18.333 4.13403 18.1574 3.82147 17.8449C3.50891 17.5323 3.33331 17.1084 3.33331 16.6663V4.99967C3.33331 4.55765 3.50891 4.13372 3.82147 3.82116C4.13403 3.5086 4.55795 3.33301 4.99998 3.33301H6.66665" stroke="#212121" stroke-width="1.25" stroke-linecap="round" stroke-linejoin="round"/>
<path d="M7.5 11.667H12.5" stroke="#212121" stroke-width="1.25" stroke-linecap="round" stroke-linejoin="round"/>
</svg>
