<svg width="20" height="20" viewBox="0 0 20 20" fill="none" xmlns="http://www.w3.org/2000/svg">
<path d="M17.5 5.83366H15C14.558 5.83366 14.134 5.65806 13.8215 5.3455C13.5089 5.03294 13.3333 4.60902 13.3333 4.16699V1.66699" stroke="#212121" stroke-width="1.25" stroke-linecap="round" stroke-linejoin="round"/>
<path d="M17.5 5.00033V10.417C17.5 11.0837 16.9167 11.667 16.25 11.667H10.4167C9.75002 11.667 9.16669 11.0837 9.16669 10.417V2.91699C9.16669 2.25033 9.75002 1.66699 10.4167 1.66699H14.1667L17.5 5.00033Z" stroke="#212121" stroke-width="1.25" stroke-linecap="round" stroke-linejoin="round"/>
<path d="M5.83331 6.66699V14.0003C5.83331 14.2503 5.99998 14.5003 6.16665 14.667C6.33331 14.8337 6.58331 15.0003 6.83331 15.0003H12.5" stroke="#212121" stroke-width="1.25" stroke-linecap="round" stroke-linejoin="round"/>
<path d="M2.5 10V17.3333C2.5 17.5833 2.66667 17.8333 2.83333 18C3 18.1667 3.25 18.3333 3.5 18.3333H9.16667" stroke="#212121" stroke-width="1.25" stroke-linecap="round" stroke-linejoin="round"/>
</svg>
