<svg width="20" height="20" viewBox="0 0 20 20" fill="none" xmlns="http://www.w3.org/2000/svg">
<path d="M15 4.16699L12.9883 2.15533C12.6758 1.84274 12.252 1.66709 11.81 1.66699H4.99998C4.55795 1.66699 4.13403 1.84259 3.82147 2.15515C3.50891 2.46771 3.33331 2.89163 3.33331 3.33366V16.667C3.33331 17.109 3.50891 17.5329 3.82147 17.8455C4.13403 18.1581 4.55795 18.3337 4.99998 18.3337H15C15.442 18.3337 15.8659 18.1581 16.1785 17.8455C16.4911 17.5329 16.6666 17.109 16.6666 16.667" stroke="#212121" stroke-width="1.04167" stroke-linecap="round" stroke-linejoin="round"/>
<path d="M17.815 10.5215C18.147 10.1896 18.3335 9.73935 18.3335 9.26988C18.3335 8.80041 18.147 8.35018 17.815 8.01821C17.483 7.68625 17.0328 7.49976 16.5633 7.49976C16.0939 7.49976 15.6436 7.68625 15.3117 8.01821L11.97 11.3615C11.7719 11.5596 11.6269 11.8043 11.5483 12.0732L10.8508 14.4649C10.8299 14.5366 10.8287 14.6126 10.8472 14.685C10.8657 14.7573 10.9034 14.8234 10.9562 14.8762C11.009 14.929 11.0751 14.9666 11.1474 14.9852C11.2198 15.0037 11.2958 15.0025 11.3675 14.9815L13.7592 14.284C14.0281 14.2055 14.2728 14.0605 14.4708 13.8624L17.815 10.5215Z" stroke="#212121" stroke-width="1.04167" stroke-linecap="round" stroke-linejoin="round"/>
<path d="M6.66666 15H7.5" stroke="#212121" stroke-width="1.04167" stroke-linecap="round" stroke-linejoin="round"/>
</svg>
