<svg width="20" height="20" viewBox="0 0 20 20" fill="none" xmlns="http://www.w3.org/2000/svg">
<path d="M16.6667 5H3.33333C2.41286 5 1.66666 5.74619 1.66666 6.66667V13.3333C1.66666 14.2538 2.41286 15 3.33333 15H16.6667C17.5871 15 18.3333 14.2538 18.3333 13.3333V6.66667C18.3333 5.74619 17.5871 5 16.6667 5Z" stroke="#212121" stroke-width="1.25" stroke-linecap="round" stroke-linejoin="round"/>
<path d="M9.99998 11.6663C10.9205 11.6663 11.6666 10.9201 11.6666 9.99967C11.6666 9.0792 10.9205 8.33301 9.99998 8.33301C9.07951 8.33301 8.33331 9.0792 8.33331 9.99967C8.33331 10.9201 9.07951 11.6663 9.99998 11.6663Z" stroke="#212121" stroke-width="1.25" stroke-linecap="round" stroke-linejoin="round"/>
<path d="M5 10H5.00833M15 10H15.0083" stroke="#212121" stroke-width="1.25" stroke-linecap="round" stroke-linejoin="round"/>
</svg>
