<svg width="20" height="20" viewBox="0 0 20 20" fill="none" xmlns="http://www.w3.org/2000/svg">
<path d="M8.33333 2.5H3.33333C2.8731 2.5 2.5 2.8731 2.5 3.33333V16.6667C2.5 17.1269 2.8731 17.5 3.33333 17.5H8.33333C8.79357 17.5 9.16667 17.1269 9.16667 16.6667V3.33333C9.16667 2.8731 8.79357 2.5 8.33333 2.5Z" stroke="#212121" stroke-width="1.04167" stroke-linecap="round" stroke-linejoin="round"/>
<path d="M5.83334 2.5V17.5" stroke="#212121" stroke-width="1.04167" stroke-linecap="round" stroke-linejoin="round"/>
<path d="M17 15.75C17.1667 16.1667 16.9167 16.6667 16.5 16.8333L14.9167 17.4167C14.5 17.5833 14 17.3333 13.8333 16.9167L9.25 4.25C9.08334 3.83333 9.33334 3.33333 9.75 3.16667L11.3333 2.58333C11.75 2.41667 12.25 2.66667 12.4167 3.08333L17 15.75Z" stroke="#212121" stroke-width="1.04167" stroke-linecap="round" stroke-linejoin="round"/>
</svg>
