<svg width="20" height="20" viewBox="0 0 20 20" fill="none" xmlns="http://www.w3.org/2000/svg">
<g clip-path="url(#clip0_2205_1142)">
<path d="M18.3333 3.74833C18.3342 3.13583 17.9767 2.60667 17.4217 2.4L11.8108 0.310835C10.67 -0.113332 9.41417 -0.114998 8.27167 0.305835L2.5925 2.4025C2.03583 2.60833 1.67667 3.13667 1.67667 3.75C1.67667 4.36333 2.03667 4.8925 2.59333 5.09667L5 5.9825V7.49917C5 10.2567 7.2425 12.4992 10 12.4992C12.7575 12.4992 15 10.2567 15 7.49917V5.98167C15 5.98167 17.4708 5.05917 17.5 5.04583V9.5825C17.5 9.8125 17.6867 9.99917 17.9167 9.99917C18.1467 9.99917 18.3333 9.8125 18.3333 9.5825V3.74833ZM14.1667 7.5C14.1667 9.7975 12.2975 11.6667 10 11.6667C7.7025 11.6667 5.83333 9.7975 5.83333 7.5V6.29L8.24083 7.17667C8.8075 7.385 9.40333 7.48917 9.99833 7.48917C10.5933 7.48917 11.1892 7.385 11.7558 7.17667L14.1658 6.29V7.50083L14.1667 7.5ZM17.1292 4.31083L11.4692 6.39417C10.5208 6.74333 9.47667 6.74333 8.53 6.39417L2.8825 4.315C2.60833 4.21417 2.51083 3.95667 2.51083 3.75C2.51083 3.54333 2.60833 3.28583 2.88167 3.185L8.56167 1.08834C9.03667 0.912502 9.53583 0.825002 10.0358 0.825002C10.5392 0.825002 11.0425 0.914168 11.5208 1.0925L17.1317 3.18167C17.4042 3.28333 17.5008 3.54083 17.5008 3.7475C17.5008 3.955 17.4025 4.21167 17.13 4.31167L17.1292 4.31083ZM17.4808 19.4583C17.55 19.6775 17.4283 19.9117 17.2083 19.9808C17.1667 19.9942 17.1242 20 17.0833 20C16.9058 20 16.7417 19.8867 16.6858 19.7083C15.8142 16.9358 13.0642 15 10 15C6.93583 15 4.18583 16.9358 3.31417 19.7083C3.245 19.9283 3.01167 20.05 2.79167 19.9808C2.57167 19.9117 2.45 19.6775 2.51917 19.4583C3.49917 16.3425 6.57583 14.1667 10 14.1667C13.4242 14.1667 16.5008 16.3425 17.4808 19.4583Z" fill="#212121"/>
</g>
<defs>
<clipPath id="clip0_2205_1142">
<rect width="20" height="20" fill="white"/>
</clipPath>
</defs>
</svg>
