<svg width="20" height="20" viewBox="0 0 20 20" fill="none" xmlns="http://www.w3.org/2000/svg">
<path d="M10 10.833V5.83301" stroke="#212121" stroke-width="1.25" stroke-linecap="round" stroke-linejoin="round"/>
<path d="M3.33331 16.2503V3.75033C3.33331 3.19779 3.55281 2.66789 3.94351 2.27719C4.33421 1.88649 4.86411 1.66699 5.41665 1.66699H15.8333C16.0543 1.66699 16.2663 1.75479 16.4226 1.91107C16.5788 2.06735 16.6666 2.27931 16.6666 2.50033V17.5003C16.6666 17.7213 16.5788 17.9333 16.4226 18.0896C16.2663 18.2459 16.0543 18.3337 15.8333 18.3337H5.41665C4.86411 18.3337 4.33421 18.1142 3.94351 17.7235C3.55281 17.3328 3.33331 16.8029 3.33331 16.2503ZM3.33331 16.2503C3.33331 15.6978 3.55281 15.1679 3.94351 14.7772C4.33421 14.3865 4.86411 14.167 5.41665 14.167H16.6666" stroke="#212121" stroke-width="1.25" stroke-linecap="round" stroke-linejoin="round"/>
<path d="M7.5 8.33301L10 10.833L12.5 8.33301" stroke="#212121" stroke-width="1.25" stroke-linecap="round" stroke-linejoin="round"/>
</svg>
